<svg xmlns="http://www.w3.org/2000/svg" xmlns:xlink="http://www.w3.org/1999/xlink" width="500" zoomAndPan="magnify" viewBox="0 0 375 103.5" height="138" preserveAspectRatio="xMidYMid meet" version="1.0"><defs><g/><clipPath id="a8aff2bcf2"><path d="M 0.902344 0 L 373.710938 0 L 373.710938 102.546875 L 0.902344 102.546875 Z M 0.902344 0 " clip-rule="nonzero"/></clipPath><clipPath id="244b5c977e"><path d="M 10.972656 9.644531 L 187.226562 9.644531 L 187.226562 92.96875 L 10.972656 92.96875 Z M 10.972656 9.644531 " clip-rule="nonzero"/></clipPath></defs><g clip-path="url(#a8aff2bcf2)"><path stroke-linecap="butt" transform="matrix(1.068512, 0, 0, 1.067183, 0.901442, 0.00118527)" fill="none" stroke-linejoin="miter" d="M 0.000843643 -0.00111066 L 348.905335 -0.00111066 L 348.905335 96.0901 L 0.000843643 96.0901 L 0.000843643 -0.00111066 " stroke="#007030" stroke-width="4.192344" stroke-opacity="1" stroke-miterlimit="4"/></g><g clip-path="url(#244b5c977e)"><path fill="#007030" d="M 10.972656 9.644531 L 187.226562 9.644531 L 187.226562 92.96875 L 10.972656 92.96875 L 10.972656 9.644531 " fill-opacity="1" fill-rule="nonzero"/></g><g fill="#ffffff" fill-opacity="1"><g transform="translate(31.752434, 65.380548)"><g><path d="M 4.082031 0 L 7.601562 0 L 7.601562 -10.042969 L 13.761719 -10.042969 L 20.601562 0 L 24.84375 0 L 17.800781 -10.402344 C 21.882812 -11.402344 24.402344 -14.480469 24.402344 -19.003906 C 24.402344 -24.5625 20.5625 -28.003906 14.761719 -28.003906 L 4.082031 -28.003906 Z M 7.601562 -13.402344 L 7.601562 -24.644531 L 14.363281 -24.644531 C 18.441406 -24.644531 20.800781 -22.5625 20.800781 -19.003906 C 20.800781 -15.441406 18.441406 -13.402344 14.363281 -13.402344 Z M 7.601562 -13.402344 "/></g></g></g><g fill="#ffffff" fill-opacity="1"><g transform="translate(62.027313, 65.380548)"><g><path d="M 0.679688 0 L 4.441406 0 L 7 -6.359375 L 20.644531 -6.359375 L 23.28125 0 L 27.003906 0 L 15.480469 -28.003906 L 12.203125 -28.003906 Z M 8.359375 -9.640625 L 13.839844 -23.082031 L 19.324219 -9.640625 Z M 8.359375 -9.640625 "/></g></g></g><g fill="#ffffff" fill-opacity="1"><g transform="translate(92.742092, 65.380548)"><g><path d="M 4.082031 0 L 7.601562 0 L 7.601562 -9.199219 L 13.5625 -9.199219 C 19.882812 -9.199219 23.964844 -12.839844 23.964844 -18.601562 C 23.964844 -24.324219 19.882812 -28.003906 13.5625 -28.003906 L 4.082031 -28.003906 Z M 7.601562 -12.480469 L 7.601562 -24.644531 L 13.480469 -24.644531 C 18.003906 -24.644531 20.363281 -22.5625 20.363281 -18.5625 C 20.363281 -14.5625 18.003906 -12.480469 13.480469 -12.480469 Z M 7.601562 -12.480469 "/></g></g></g><g fill="#ffffff" fill-opacity="1"><g transform="translate(121.337325, 65.380548)"><g><path d="M 4.082031 0 L 7.601562 0 L 7.601562 -28.003906 L 4.082031 -28.003906 Z M 4.082031 0 "/></g></g></g><g fill="#ffffff" fill-opacity="1"><g transform="translate(136.055464, 65.380548)"><g><path d="M 4.082031 0 L 13.761719 0 C 22.363281 0 28.125 -5.722656 28.125 -14 C 28.125 -22.28125 22.363281 -28.003906 13.761719 -28.003906 L 4.082031 -28.003906 Z M 7.601562 -3.359375 L 7.601562 -24.644531 L 13.601562 -24.644531 C 20.121094 -24.644531 24.523438 -20.363281 24.523438 -14 C 24.523438 -7.640625 20.164062 -3.359375 13.761719 -3.359375 Z M 7.601562 -3.359375 "/></g></g></g><g fill="#008037" fill-opacity="1"><g transform="translate(199.095962, 65.380548)"><g><path d="M 16.042969 0.601562 C 23.761719 0.601562 29.605469 -4.082031 30.804688 -11.203125 L 22.601562 -11.203125 C 21.601562 -8.5625 19.242188 -6.882812 16.203125 -6.882812 C 12.28125 -6.882812 9.5625 -9.800781 9.5625 -14 C 9.5625 -18.242188 12.320312 -21.121094 16.28125 -21.121094 C 19.203125 -21.121094 21.644531 -19.484375 22.484375 -16.960938 L 30.644531 -16.960938 C 29.203125 -24.042969 23.441406 -28.605469 15.960938 -28.605469 C 7.320312 -28.605469 1.359375 -22.644531 1.359375 -14 C 1.359375 -5.359375 7.320312 0.601562 16.042969 0.601562 Z M 16.042969 0.601562 "/></g></g></g><g fill="#008037" fill-opacity="1"><g transform="translate(231.169225, 65.380548)"><g><path d="M 2.960938 0 L 22.484375 0 L 22.484375 -7.480469 L 11.042969 -7.480469 L 11.042969 -28.003906 L 2.960938 -28.003906 Z M 2.960938 0 "/></g></g></g><g fill="#008037" fill-opacity="1"><g transform="translate(254.644301, 65.380548)"><g><path d="M 0.199219 0 L 8.761719 0 L 10.28125 -3.960938 L 19.84375 -3.960938 L 21.363281 0 L 29.964844 0 L 19.082031 -28.003906 L 11.082031 -28.003906 Z M 11.960938 -9.882812 L 15.082031 -18.5625 L 18.203125 -9.882812 Z M 11.960938 -9.882812 "/></g></g></g><g fill="#008037" fill-opacity="1"><g transform="translate(284.797967, 65.380548)"><g><path d="M 2.960938 0 L 11.042969 0 L 11.042969 -28.003906 L 2.960938 -28.003906 Z M 2.960938 0 "/></g></g></g><g fill="#008037" fill-opacity="1"><g transform="translate(298.795027, 65.380548)"><g><path d="M 2.960938 0 L 10.960938 0 L 10.960938 -14.203125 L 16.363281 -6.640625 L 21.601562 -6.640625 L 26.964844 -14.160156 L 26.964844 0 L 34.964844 0 L 34.964844 -28.003906 L 28.402344 -28.003906 L 18.960938 -14.683594 L 9.5625 -28.003906 L 2.960938 -28.003906 Z M 2.960938 0 "/></g></g></g><g fill="#008037" fill-opacity="1"><g transform="translate(336.707063, 65.380548)"><g><path d="M 13 0.601562 C 19.960938 0.601562 24.082031 -2.679688 24.082031 -8.199219 C 24.082031 -12.839844 21.082031 -15.5625 14.28125 -17.082031 C 10.679688 -17.882812 9.359375 -18.761719 9.359375 -20.203125 C 9.359375 -21.5625 10.5625 -22.402344 12.441406 -22.402344 C 14.683594 -22.402344 15.960938 -21.242188 15.960938 -19.121094 L 23.5625 -19.121094 C 23.5625 -24.882812 19.164062 -28.605469 12.28125 -28.605469 C 5.679688 -28.605469 1.601562 -25.324219 1.601562 -20.042969 C 1.601562 -15.320312 4.679688 -12.402344 11 -11.203125 C 14.402344 -10.519531 16.042969 -9.480469 16.042969 -7.882812 C 16.042969 -6.480469 14.84375 -5.679688 12.882812 -5.679688 C 10.5625 -5.679688 9.199219 -6.921875 9.199219 -9.082031 L 1.398438 -9.082031 C 1.398438 -3.039062 5.722656 0.601562 13 0.601562 Z M 13 0.601562 "/></g></g></g></svg>